<?xml version="1.0" encoding="utf-8"?>
<!-- Generator: Adobe Illustrator 18.0.0, SVG Export Plug-In . SVG Version: 6.00 Build 0)  -->
<!DOCTYPE svg PUBLIC "-//W3C//DTD SVG 1.1//EN" "http://www.w3.org/Graphics/SVG/1.1/DTD/svg11.dtd">
<svg version="1.1" id="Layer_1" xmlns="http://www.w3.org/2000/svg" xmlns:xlink="http://www.w3.org/1999/xlink" x="0px" y="0px"
	 viewBox="0 0 254.5 210.3" enable-background="new 0 0 254.5 210.3" xml:space="preserve">
<g>
	<g>
		<path fill-rule="evenodd" clip-rule="evenodd" fill="none" stroke="#FFFFFF" stroke-width="3" stroke-miterlimit="10" d="
			M130.2,129.5c0-4.7,0.1-9.4-0.1-14.1c-0.1-2.2,0.5-3.3,2.6-4.3c5.1-2.3,9.7-5.4,13.4-9.6c7.1-8.1,8.4-17.8,7.6-28
			c-0.2-2.1-0.7-4.1-0.9-6.1c-0.1-1.1-0.5-1.6-1.6-1.1c-8.7,3.1-16.7,7.3-22.3,15c-5.8,7.9-6.9,17-5.6,26.3c1,7,1.2,14.1,0.9,21.1
			c-0.2,5.3,0.3,10.5,0.1,15.8c-0.1,1.7-0.3,2.5-2.3,2.5c-5.5-0.1-10.9-0.1-16.4,0c-2.7,0-4.2-1.3-4.5-4c-1.4-12.6-6.5-23.5-14.8-33
			C72.2,93.7,71.5,69,84.1,50.6c12-17.6,33.6-26.3,54-21.8c21,4.6,36.8,21,40.5,42.1c2.6,15.1-1.4,28.5-11.3,40.1
			c-8,9.2-12.5,19.7-13.8,31.7c-0.3,2.9-1.4,4.1-4.3,4.1c-5.6,0.1-11.3,0-16.9,0.1c-1.7,0-2-0.6-2-2.1
			C130.3,139.7,130.2,134.6,130.2,129.5z M102,78.4c-4.1-0.3-4.1-0.3-3.6,3.8c0.1,0.8,0.1,1.7,0.2,2.5c0.9,11.1,8,19.7,18.3,22.4
			c2,0.5,2.6,0.2,2.4-2c-0.6-5.6,0-11.1,1.8-16.4c0.5-1.6,0.2-2.7-1.1-3.8C114.7,80.6,108.6,78.9,102,78.4z"/>
		<path fill-rule="evenodd" clip-rule="evenodd" fill="none" stroke="#FFFFFF" stroke-width="3" stroke-miterlimit="10" d="
			M126.8,171.5c-5.4,0-10.9,0-16.3,0c-1,0-2.1-0.1-3-0.4c-1.8-0.5-2.6-1.9-2.5-3.7c0.1-1.6,1-2.9,2.7-3.2c1.1-0.2,2.2-0.3,3.4-0.3
			c10.9,0,21.8,0,32.7,0c1,0,2.1,0,3.1,0.3c1.6,0.4,2.6,1.5,2.7,3.2c0.1,1.8-0.6,3.1-2.4,3.7c-1,0.4-2,0.4-3,0.4
			C138.3,171.5,132.6,171.5,126.8,171.5z"/>
		<path fill-rule="evenodd" clip-rule="evenodd" fill="none" stroke="#FFFFFF" stroke-width="3" stroke-miterlimit="10" d="
			M127.1,160.3c-5.7,0-11.5,0-17.2,0c-3.1,0-5-1.5-5-3.7c0-2.3,1.8-3.6,5-3.6c11.6,0,23.3,0,34.9,0c3.1,0,4.6,1.3,4.6,3.7
			c0,2.4-1.6,3.7-4.6,3.7C138.9,160.3,133,160.3,127.1,160.3z"/>
		<path fill-rule="evenodd" clip-rule="evenodd" fill="#FFFFFF" d="M142.8,78.7c1-1.7,1.8-3.2,2.7-4.6c0.6-0.9,1.3-1.7,2.5-1
			c1.3,0.7,1.2,1.8,0.6,2.9c-0.8,1.5-1.7,2.9-2.6,4.6c0.5,0,0.9,0.1,1.2,0c1.2-0.3,2.6-1,3,0.7c0.4,1.5-1.2,1.8-2.2,1.9
			c-3.8,0.4-5.7,2.7-7,6.3c1.6-0.4,3.1-0.7,4.6-1c0.8-0.1,1.6,0,1.9,0.8c0.3,1.1-0.5,1.5-1.3,1.8c-1.2,0.4-2.5,0.7-3.8,1.1
			c-4.3,1.1-4.5,1.3-6.2,5.9c1.3,0.6,3.6-1.8,3.9,0.9c0.3,2-2.1,1.9-3.4,2c-3.5,0.4-4.3,3.3-5.7,5.6c-0.5,0.9-0.9,1.9-2.2,1.9
			c-1.7-0.1-2.4-1.6-1.2-3.3c2.2-3.2,3.3-6.4,1.5-10.2c-0.4-0.8-0.2-1.8,0.8-2.1c1-0.3,1.5,0.5,1.9,1.3c0.3,0.6,0.4,1.2,0.7,2
			c2.3-2.6,3.5-5.2,2.1-8.5c-0.5-1.2-0.8-2.5-1-3.8c-0.1-0.7-0.2-1.6,0.7-1.9c1-0.3,1.6,0.3,1.9,1.2c0.5,1.4,0.4,3,1.5,4.3
			c1.7-2.5,3.4-4.8,2-8c-0.5-1.2-1.4-2.7,0.1-3.8C140.8,74.8,141.5,75.6,142.8,78.7z"/>
		<path fill-rule="evenodd" clip-rule="evenodd" fill="none" stroke="#FFFFFF" stroke-width="3" stroke-miterlimit="10" d="
			M127.1,175.1c2.4,0,4.7-0.1,7.1,0c2.3,0.1,4.1,1.1,4.1,3.7c0,2.6-1.7,3.7-4,3.7c-4.7,0.1-9.4,0.1-14.1,0c-2.4,0-4-1.2-4-3.8
			c0-2.4,1.8-3.5,3.9-3.6C122.4,175,124.8,175.1,127.1,175.1z"/>
	</g>
</g>
</svg>
